<?xml version="1.0" encoding="utf-8"?>
<!-- Generator: Adobe Illustrator 27.5.0, SVG Export Plug-In . SVG Version: 6.00 Build 0)  -->
<svg version="1.1" id="Layer_1" xmlns="http://www.w3.org/2000/svg" xmlns:xlink="http://www.w3.org/1999/xlink" x="0px" y="0px"
	 viewBox="0 0 30 22.5" style="enable-background:new 0 0 30 22.5;" xml:space="preserve">
<style type="text/css">
	.st0{fill:#FFFFFF;}
</style>
<path class="st0" d="M30,4.1c0,5.4,0,10.9,0,16.3c0,0,0,0,0,0c-0.2,1.3-1.4,2.1-2.7,2.1c-8.2,0-16.3,0-24.5,0c-1.7,0-2.7-1-2.7-2.7
	C0,14.7,0,9.6,0,4.5c0-0.1,0-0.2,0-0.3c0-0.5,0.5-0.7,0.9-0.5C1,3.8,1.1,3.9,1.2,3.9c4,3.4,8,6.9,12,10.3c0.3,0.2,0.6,0.5,1,0.6
	c1,0.4,1.9,0.1,2.7-0.6c4-3.4,8-6.9,12-10.3C29.3,3.5,29.7,3.6,30,4.1z"/>
<path class="st0" d="M15,0c4.1,0,8.3,0,12.4,0c0.7,0,1.4,0.3,1.9,0.8c0.4,0.4,0.4,0.8-0.1,1.2c-1.9,1.6-3.7,3.1-5.6,4.7
	c-2.5,2.1-5,4.3-7.5,6.4c-1,0.9-1.4,0.9-2.4,0C9.8,9.6,5.7,6.2,1.7,2.7C1.3,2.4,1,2.2,0.7,1.9c-0.4-0.3-0.4-0.7-0.1-1
	C1.1,0.3,1.8,0,2.5,0C6.7,0,10.8,0,15,0z"/>
</svg>
