<?xml version="1.0" encoding="utf-8"?>
<!-- Generator: Adobe Illustrator 27.6.1, SVG Export Plug-In . SVG Version: 6.00 Build 0)  -->
<svg version="1.1" id="Layer_1" xmlns="http://www.w3.org/2000/svg" xmlns:xlink="http://www.w3.org/1999/xlink" x="0px" y="0px"
	 viewBox="0 0 94.2 42.1" style="enable-background:new 0 0 94.2 42.1;" xml:space="preserve">
<style type="text/css">
	.st0{display:none;}
	.st1{display:inline;fill:#024153;}
	.st2{fill:#024153;}
	.st3{fill-rule:evenodd;clip-rule:evenodd;fill:#00B488;}
	.st4{fill-rule:evenodd;clip-rule:evenodd;fill:#0781A5;}
</style>
<g>
	<g class="st0">
		<path class="st1" d="M25.5,54.6V43.5h2.1c1.6,0,2.7,0.1,3.3,0.2c0.6,0.2,1.2,0.4,1.7,0.8c0.6,0.5,1.1,1.1,1.4,1.9
			c0.3,0.8,0.5,1.6,0.5,2.6c0,1-0.2,1.9-0.5,2.6c-0.3,0.8-0.8,1.4-1.5,1.9c-0.5,0.4-1,0.6-1.7,0.8c-0.6,0.2-1.6,0.2-2.9,0.2h-0.5
			H25.5z M26.9,53.3h0.8c1.4,0,2.3-0.1,2.8-0.2c0.5-0.1,1-0.3,1.3-0.6c0.5-0.4,0.8-0.9,1-1.5c0.2-0.6,0.4-1.3,0.4-2.1
			c0-0.8-0.1-1.5-0.4-2.1c-0.2-0.6-0.6-1.1-1-1.5c-0.3-0.3-0.8-0.5-1.3-0.6c-0.5-0.1-1.5-0.2-2.8-0.2h-0.8V53.3z"/>
		<path class="st1" d="M36.8,54.6V43.5h5.8v1.2h-4.5v3.2h4.5v1.2h-4.5v4.3h4.5v1.2H36.8z"/>
		<path class="st1" d="M48.9,48.4c0.7,0.3,1.3,0.7,1.6,1.2c0.4,0.5,0.5,1.1,0.5,1.8c0,1-0.3,1.8-1,2.5c-0.6,0.6-1.5,0.9-2.6,0.9
			c-0.9,0-1.6-0.2-2.2-0.7c-0.6-0.4-1-1.1-1.2-1.9l1.2-0.6c0.2,0.7,0.4,1.2,0.8,1.5c0.4,0.3,0.8,0.5,1.4,0.5c0.7,0,1.2-0.2,1.6-0.6
			c0.4-0.4,0.6-0.9,0.6-1.5c0-0.5-0.1-0.9-0.4-1.3C49,50,48.6,49.7,48,49.4l-1.4-0.6c-0.7-0.3-1.3-0.7-1.6-1.2
			c-0.4-0.5-0.5-1.1-0.5-1.7c0-0.8,0.3-1.4,0.9-2c0.6-0.5,1.3-0.8,2.2-0.8c0.7,0,1.2,0.1,1.7,0.4c0.5,0.3,0.9,0.7,1.1,1.2l-1.1,0.7
			c-0.2-0.4-0.5-0.8-0.8-1c-0.3-0.2-0.7-0.3-1-0.3c-0.5,0-0.9,0.2-1.2,0.5c-0.3,0.3-0.5,0.7-0.5,1.2c0,0.4,0.1,0.7,0.4,1
			c0.2,0.3,0.6,0.5,1.1,0.8L48.9,48.4z"/>
		<path class="st1" d="M63,48.8h4.6v0.4c0,1.7-0.5,3.1-1.5,4.1c-1,1-2.3,1.5-4.1,1.5c-0.5,0-1-0.1-1.5-0.2c-0.5-0.1-0.9-0.3-1.3-0.5
			c-0.9-0.5-1.6-1.2-2.1-2.1c-0.5-0.9-0.7-1.9-0.7-3c0-0.9,0.1-1.8,0.4-2.5c0.3-0.7,0.7-1.4,1.3-2c0.5-0.5,1.1-0.8,1.7-1.1
			c0.7-0.2,1.4-0.4,2.2-0.4c1.1,0,2,0.2,2.8,0.6c0.8,0.4,1.4,1,1.9,1.7l-1.1,0.9c-0.4-0.7-0.9-1.2-1.5-1.5c-0.6-0.3-1.3-0.5-2.1-0.5
			c-1.3,0-2.3,0.4-3.1,1.3c-0.8,0.9-1.2,2-1.2,3.4c0,1.3,0.4,2.4,1.2,3.3c0.8,0.8,1.9,1.3,3.1,1.3c1.1,0,2-0.3,2.8-1
			c0.7-0.7,1.1-1.6,1.2-2.6H63V48.8z"/>
		<path class="st1" d="M69.5,54.6V43l8.1,8.9v-8.4h1.3V55l-8.1-8.8v8.3H69.5z"/>
	</g>
	<g>
		<path class="st2" d="M0.4,41.7V30.6h1.3v11.1H0.4z"/>
		<path class="st2" d="M52.7,41.7V30.6H54v11.1H52.7z"/>
		<path class="st2" d="M9.6,42.1l-3.4-8l-1.4,7.5H3.5l2.2-11.5l3.9,9.2l3.9-9.2l2.2,11.5h-1.3L13,34.2L9.6,42.1z"/>
		<path class="st2" d="M22.6,42.1l-3.4-8l-1.4,7.5h-1.3l2.2-11.5l3.9,9.2l3.9-9.2l2.2,11.5h-1.3L26,34.2L22.6,42.1z"/>
		<path class="st2" d="M33.9,30.2l5,11.5h-1.4l-1.4-3.4h-4.3l-1.4,3.4h-1.4L33.9,30.2z M33.9,33.1l-1.8,4.1h3.5L33.9,33.1z"/>
		<path class="st2" d="M46.2,36h4.6v0.4c0,1.7-0.5,3.1-1.5,4.1c-1,1-2.3,1.5-4.1,1.5c-0.5,0-1-0.1-1.5-0.2c-0.5-0.1-0.9-0.3-1.3-0.5
			c-0.9-0.5-1.6-1.2-2.1-2.1c-0.5-0.9-0.7-1.9-0.7-3c0-0.9,0.1-1.8,0.4-2.5c0.3-0.7,0.7-1.4,1.3-2c0.5-0.5,1.1-0.8,1.7-1.1
			c0.7-0.2,1.4-0.4,2.2-0.4c1.1,0,2,0.2,2.8,0.6c0.8,0.4,1.4,1,1.9,1.7l-1.1,0.9c-0.4-0.7-0.9-1.2-1.5-1.5c-0.6-0.3-1.3-0.5-2.1-0.5
			c-1.3,0-2.3,0.4-3.1,1.3c-0.8,0.9-1.2,2-1.2,3.4c0,1.3,0.4,2.4,1.2,3.3c0.8,0.8,1.9,1.3,3.1,1.3c1.1,0,2-0.3,2.8-1
			c0.7-0.7,1.1-1.6,1.2-2.6h-3.2V36z"/>
		<path class="st2" d="M56.8,41.7V30.2l8.1,8.9v-8.4h1.3v11.5L58,33.4v8.3H56.8z"/>
		<path class="st2" d="M72.3,30.2l5,11.5h-1.4l-1.4-3.4h-4.3l-1.4,3.4h-1.4L72.3,30.2z M72.3,33.1l-1.8,4.1h3.5L72.3,33.1z"/>
		<path class="st2" d="M78.5,41.7V30.6h2.6c0.7,0,1.3,0,1.6,0.1c0.3,0.1,0.7,0.2,0.9,0.4c0.3,0.3,0.6,0.6,0.8,1
			c0.2,0.4,0.3,0.9,0.3,1.4c0,0.9-0.3,1.6-0.8,2.1c-0.5,0.5-1.3,0.7-2.2,0.7h-0.2l4.2,5.3H84l-4-5.3h-0.2v5.3H78.5z M79.8,31.7v3.7
			h1c1,0,1.7-0.1,2.1-0.4c0.3-0.3,0.5-0.7,0.5-1.4c0-0.7-0.2-1.2-0.5-1.5c-0.4-0.3-1-0.4-2.1-0.4H79.8z"/>
		<path class="st2" d="M86.8,41.7V30.6h5.9v1.2h-4.5V35h4.5v1.2h-4.5v4.3h4.5v1.2H86.8z"/>
		<path class="st3" d="M83.1,3.8c0,0-12-8.2-26.6-0.5C42,11,28.4,4.1,26.5,2.6C21.1-1.6,5.4,0,1.8,4.9l5,2.4c0,0,10.3-4.8,19.6-1.5
			c6.8,2.4,15,11.8,33.8,0.7c18.7-11.1,29.4,4.3,29.5,5.3L83.1,3.8z"/>
		<path class="st4" d="M13.1,13.3c0,0,11.4-9.1,26.5-2.4c15,6.7,28.1-1.1,29.9-2.7C74.6,3.5,90.3,4,94.2,8.7l-4.8,2.7
			c0,0-10.6-4.1-19.6-0.2c-6.6,2.9-14.2,12.8-33.6,3.1c-19.5-9.7-29,6.3-29,7.3L13.1,13.3z"/>
		<path class="st3" d="M6,17.8c0,0,11.4-9,26.5-2.4c15,6.7,28.1-1.1,29.9-2.7c5.1-4.6,20.8-4.1,24.8,0.5l-4.8,2.7
			c0,0-10.6-4.1-19.6-0.2C56,18.7,48.5,28.6,29,18.8C9.6,9.1,0,25.2,0,26.2L6,17.8z"/>
	</g>
</g>
</svg>
